<svg cache-id="f3c8b79a464044659a6954de9d0080f6" id="ebpYPKH19DT1" xmlns="http://www.w3.org/2000/svg" xmlns:xlink="http://www.w3.org/1999/xlink" viewBox="0 0 580.9 199.52" shape-rendering="geometricPrecision" text-rendering="geometricPrecision"><style><![CDATA[#ebpYPKH19DT4_to {animation: ebpYPKH19DT4_to__to 3000ms linear infinite normal forwards}@keyframes ebpYPKH19DT4_to__to { 0% {transform: translate(89.879997px,99.760002px)} 16.666667% {transform: translate(68.039997px,228.308408px)} 33.333333% {transform: translate(104.618811px,14.312605px)} 100% {transform: translate(104.618811px,14.312605px)}} #ebpYPKH19DT5_to {animation: ebpYPKH19DT5_to__to 3000ms linear infinite normal forwards}@keyframes ebpYPKH19DT5_to__to { 0% {transform: translate(138.805px,137.065002px)} 16.666667% {transform: translate(147.165871px,88.989989px)} 33.333333% {transform: translate(115.812602px,216.493286px)} 100% {transform: translate(115.812602px,216.493286px)}} #ebpYPKH19DT6_to {animation: ebpYPKH19DT6_to__to 3000ms linear infinite normal forwards}@keyframes ebpYPKH19DT6_to__to { 0% {transform: translate(27.245001px,137.065002px)} 16.666667% {transform: translate(50.237399px,45.095411px)} 33.333333% {transform: translate(7.910486px,210.222632px)} 100% {transform: translate(7.910486px,210.222632px)}}]]></style><g><g transform="matrix(.636429 0 0 0.636429 105.599201 36.269844)"><g id="ebpYPKH19DT4_to" transform="translate(89.879997,99.760002)"><path d="M46.36,199.52L83.48,0h49.92L96.28,199.52Z" transform="translate(-89.879997,-99.760002)" fill="#8fc31f"/></g><g id="ebpYPKH19DT5_to" transform="translate(138.805,137.065002)"><path d="M111.56,199.52L134.8,74.61h31.25L142.81,199.52Z" transform="translate(-138.805,-137.065002)" fill="#8fc31f"/></g><g id="ebpYPKH19DT6_to" transform="translate(27.245001,137.065002)"><path d="M0,199.52L23.24,74.61h31.25L31.25,199.52Z" transform="translate(-27.245001,-137.065002)" fill="#8fc31f"/></g><path d="M218.37,116.83v15.1c-.094597.65119.123007,1.308906.587316,1.775183s1.1211.68666,1.772684.594817h12.37v10.47h-21.24q-9.26-.09-9.25-9.25v-45.12h-4.25v-11.24h1.64c1.288885-.015521,2.401931-.905958,2.7-2.16l8.68-23.13h67.32v.19l8.87,23.88c.364695.851098,1.252437,1.354288,2.17,1.23h1.14v11.23h-4.88v17.18q-.11,9.26-9.26,9.25ZM270.2,91.06v-5.57h-51.83v5.57Zm-51.83,9.34v5.19h49.47c.648544.094713,1.303793-.121797,1.76823-.584266s.683728-1.116794.59177-1.765734v-2.84Zm51.26-26.15l-3.21-9.16h-43l-3.4,9.16h16.98v-5.76h15.77v5.76Zm-3.3,49.47c1.606749.073627,3.139151-.68125,4.06-2l1.32-1.89h17.29l-3.49,4.63c-2.92836,3.932533-7.611154,6.163504-12.51,5.96h-16.8l.75,1.33c.737152,1.567113,2.318216,2.562597,4.05,2.55h29.5v10.47h-35.69c-5.203327.155758-10.081338-2.524467-12.74-7L232.82,121h18.78l1.32,2.74Z" fill="#1a883b"/><path d="M297,97.57l-2.26-12.74h4.72c1.95,0,3.33-.48,4.15-1.42l7-11.14h-15.2v-12.75h23l4.63-7.27h17.28l-4.44,7.27h51.64v12.75h-59.26L315.8,92.94c-1.036874,1.24512-2.282026,2.300792-3.68,3.12h4.81v48.71h-15.76v-47.2Zm51.36,5.29h-20.85v-12.75h20.86v-12.55h15.77v12.55h21.15v12.75h-21.15v29.14h23v12.74h-61.9v-12.74h23.13Z" fill="#1a883b"/><path d="M416.06,108.52l-5.95,29.17q-2.16,7.08-9.63,7.08h-6.42L391.8,132h1.13c1.729861.131823,3.261576-1.110227,3.49-2.83l3.5-20.68Zm-5.28-20.39c.345481,1.507616,1.761644,2.520388,3.3,2.36h1v12.75h-9.44q-7.28,0-9.35-8.79l-3.4-13.12h15.81Zm0-27.19c.345481,1.507616,1.761644,2.520388,3.3,2.36h1v12.75h-9.44q-7.28,0-9.35-8.78l-3-13.13h15.77Zm55.41-3.68h15.81v39.74q-.09,9.25-9.25,9.26h-37.2v23.41c-.091097.649597.128065,1.304277.591894,1.768106s1.118509.682991,1.768106.591894h8.59v12.74h-17.5q-9.25-.09-9.26-9.25v-78.26h23.42v-5h15.76v5Zm0,19.26v-7.27h-30.68v7.27ZM435.51,87.75v6.52h28.32c.649597.091097,1.304277-.128065,1.768106-.591894s.682991-1.118509.591894-1.768106v-4.16Zm33.8,42.2c.995889,1.38976,2.632857,2.174298,4.34,2.08h10.57v12.74h-15.29q-9.06,0-13.69-6.89l-13.59-26h17.27l2.74,4.82h4c1.467011.023929,2.736098-1.016722,3-2.46l1.32-2.36h13.5l-3.4,9.06q-2.07,5.86-9.53,5.86h-3Z" fill="#1a883b"/><path d="M491.49,134.2v-36.2h86.39v27q0,9.26-9.35,9.25h-4.44l.95,1.7c1.05852,1.47673,2.807614,2.298274,4.62,2.17h11.24v6.7h-25.68q-6.33,0-9.16-4.24l-3.59-6.33h-14.35l-2.36,3q-4.53,7.56-12.55,7.55h-22.47l-2.27-6.7h13.53c2.063157.045857,3.970736-1.092473,4.91-2.93l.38-.94Zm37.67-48v1.89c-.053624,1.746995-.723056,3.418804-1.89,4.72-1.274185,1.603968-3.221808,2.524192-5.27,2.49h-27.58l-.94-5.94h17.46c.706514.010844,1.387674-.263061,1.89-.76.375279-.486704.576033-1.085444.57-1.7v-.66h-22.66v-18.41h22.66v-3.83h-23.89v-7.5h23.89v-4.25h15.76v4.25h9.92v-4.25h15.76v4.25h23.41v9.5q-.09,9.25-9.25,9.25h-14.16v3.49h23.41v7.27q-.09,9.26-9.25,9.25h-6.7l-2.08-5.94h2.17c.642635.092542,1.291622-.120306,1.754628-.575464s.686916-1.100413.605372-1.744536v-.76h-9.91v9.06h-15.76v-9.06ZM513.4,75.29h-9.16v3.49h9.16Zm48.71,32.95v-2.74h-54.85v2.74Zm0,9.06v-3.11h-54.85v3.11Zm-54.85,6v3.49h52.49c.650532.095479,1.307906-.122246,1.77283-.58717s.682649-1.122298.58717-1.77283v-1.13ZM539.08,64h-9.92v3.87h9.92Zm0,11.33h-9.92v3.49h9.92Zm15.76-7.46h7.55c.650532.095479,1.307906-.122246,1.77283-.58717s.682649-1.122298.58717-1.77283v-1.51h-9.91Z" fill="#1a883b"/></g></g></svg>