<?xml version="1.0" standalone="no"?>
<!DOCTYPE svg PUBLIC "-//W3C//DTD SVG 1.0//EN" "http://www.w3.org/TR/2001/REC-SVG-20010904/DTD/svg10.dtd">
<svg xmlns="http://www.w3.org/2000/svg" xmlns:xlink="http://www.w3.org/1999/xlink" id="body_1" width="512" height="384">

<g transform="matrix(0.8813909 0 0 0.8813909 -0 104.07244)">
	<g>
		<g>
			<g transform="matrix(1 0 0 1 89.88 99.76)">
                <path transform="matrix(1 0 0 1 -89.88 -99.76)"  d="M46.36 199.52L83.48 0L133.4 0L96.28 199.52L46.36 199.52z" stroke="none" fill="#8FC31F" fill-rule="nonzero" />
			</g>
			<g transform="matrix(1 0 0 1 138.805 137.065)">
                <path transform="matrix(1 0 0 1 -138.805 -137.065)"  d="M111.56 199.52L134.8 74.61L166.05 74.61L142.81 199.52L111.56 199.52z" stroke="none" fill="#8FC31F" fill-rule="nonzero" />
			</g>
			<g transform="matrix(1 0 0 1 27.245 137.065)">
                <path transform="matrix(1 0 0 1 -27.245 -137.065)"  d="M0 199.52L23.24 74.61L54.489998 74.61L31.25 199.52L0 199.52z" stroke="none" fill="#8FC31F" fill-rule="nonzero" />
			</g>
            <path d="M218.37 116.83L218.37 131.93001C 218.27539 132.58119 218.493 133.2389 218.9573 133.70518C 219.42162 134.17146 220.0784 134.39185 220.73 134.3L220.73 134.3L233.09999 134.3L233.09999 144.77L211.85999 144.77C 205.68666 144.71 202.60333 141.62668 202.60999 135.52L202.60999 135.52L202.60999 90.40001L198.35999 90.40001L198.35999 79.16001L199.99998 79.16001C 201.28886 79.14449 202.40192 78.25405 202.69998 77.00001L202.69998 77.00001L211.37997 53.87001L278.69998 53.87001L278.69998 54.06001L287.56998 77.94001C 287.93466 78.79111 288.82242 79.2943 289.74 79.17001L289.74 79.17001L290.88 79.17001L290.88 90.40001L286 90.40001L286 107.58001C 285.9267 113.75334 282.84003 116.83668 276.74 116.83001L276.74 116.83001L218.37 116.83zM270.2 91.06L270.2 85.49L218.37001 85.49L218.37001 91.06zM218.37001 100.399994L218.37001 105.59L267.84003 105.59C 268.48856 105.68471 269.14383 105.4682 269.60825 105.00573C 270.07266 104.54326 270.29196 103.88894 270.2 103.24L270.2 103.24L270.2 100.4zM269.63 74.24999L266.42 65.09L223.42001 65.09L220.02002 74.25L237.00002 74.25L237.00002 68.49L252.77002 68.49L252.77002 74.25zM266.33002 123.71999C 267.93677 123.79362 269.46918 123.03874 270.39 121.71999L270.39 121.71999L271.71002 119.829994L289.00003 119.829994L285.51004 124.45999C 282.58167 128.39252 277.8989 130.62349 273.00003 130.42L273.00003 130.42L256.20004 130.42L256.95004 131.75C 257.6872 133.31711 259.26825 134.31259 261.00003 134.3L261.00003 134.3L290.50003 134.3L290.50003 144.77L254.81003 144.77C 249.6067 144.92577 244.72868 142.24554 242.07002 137.77L242.07002 137.77L232.82 121L251.6 121L252.92001 123.74z" stroke="none" fill="#1A883B" fill-rule="nonzero" />
            <path d="M297 97.57L294.74 84.83L299.46 84.83C 301.41 84.83 302.78998 84.35 303.61 83.41L303.61 83.41L310.61 72.270004L295.40997 72.270004L295.40997 59.520004L318.40997 59.520004L323.03998 52.250004L340.31998 52.250004L335.87997 59.520004L387.51996 59.520004L387.51996 72.270004L328.25995 72.270004L315.8 92.94C 314.76312 94.18512 313.51797 95.24079 312.12 96.060005L312.12 96.060005L316.93 96.060005L316.93 144.77L301.16998 144.77L301.16998 97.57001L297 97.57zM348.36 102.86L327.50998 102.86L327.50998 90.11L348.37 90.11L348.37 77.56L364.13998 77.56L364.13998 90.11L385.28998 90.11L385.28998 102.86L364.13998 102.86L364.13998 132L387.13998 132L387.13998 144.74L325.24 144.74L325.24 132L348.37 132z" stroke="none" fill="#1A883B" fill-rule="nonzero" />
            <path d="M416.06 108.52L410.11 137.69C 408.67 142.41 405.46002 144.77 400.47998 144.77L400.47998 144.77L394.05997 144.77L391.8 132L392.93 132C 394.65985 132.13182 396.19156 130.88977 396.41998 129.17L396.41998 129.17L399.91998 108.49L416.06 108.52zM410.78 88.13C 411.1255 89.63761 412.54166 90.65038 414.08 90.49L414.08 90.49L415.08 90.49L415.08 103.24L405.63998 103.24C 400.78668 103.240005 397.66998 100.31 396.28998 94.45L396.28998 94.45L392.88998 81.329994L408.69998 81.329994zM410.78 60.939995C 411.1255 62.44761 412.54166 63.460384 414.08 63.299995L414.08 63.299995L415.08 63.299995L415.08 76.049995L405.63998 76.049995C 400.78668 76.049995 397.66998 73.12333 396.28998 67.27L396.28998 67.27L393.28998 54.139996L409.05997 54.139996zM466.19 57.259995L482 57.259995L482 97C 481.94 103.16667 478.8567 106.25334 472.75 106.26L472.75 106.26L435.55 106.26L435.55 129.67C 435.4589 130.3196 435.67804 130.97427 436.14188 131.43811C 436.6057 131.90195 437.26038 132.1211 437.90997 132.03L437.90997 132.03L446.49997 132.03L446.49997 144.77L428.99997 144.77C 422.8333 144.71 419.74664 141.62668 419.73996 135.52L419.73996 135.52L419.73996 57.260002L443.15997 57.260002L443.15997 52.260002L458.91998 52.260002L458.91998 57.260002zM466.19 76.52L466.19 69.25L435.51 69.25L435.51 76.52zM435.51 87.75L435.51 94.27L463.83002 94.27C 464.4796 94.36109 465.1343 94.14193 465.5981 93.6781C 466.06192 93.21427 466.2811 92.55959 466.19 91.909996L466.19 91.909996L466.19 87.75zM469.31 129.95C 470.30588 131.33975 471.94284 132.1243 473.65 132.03L473.65 132.03L484.22 132.03L484.22 144.77L468.93 144.77C 462.89 144.77 458.3267 142.47334 455.24 137.88L455.24 137.88L441.65 111.880005L458.91998 111.880005L461.65997 116.700005L465.65997 116.700005C 467.12698 116.72393 468.39606 115.68328 468.65997 114.240005L468.65997 114.240005L469.97998 111.880005L483.47998 111.880005L480.08 120.94C 478.7 124.84668 475.52335 126.80001 470.55 126.8L470.55 126.8L467.55 126.8z" stroke="none" fill="#1A883B" fill-rule="nonzero" />
            <path d="M491.49 134.2L491.49 98L577.88 98L577.88 125C 577.88 131.17334 574.76337 134.25667 568.53 134.25L568.53 134.25L564.09 134.25L565.04004 135.95C 566.0986 137.42673 567.84766 138.24828 569.66003 138.12L569.66003 138.12L580.9 138.12L580.9 144.81999L555.22003 144.81999C 551.00006 144.81999 547.9467 143.40666 546.06006 140.57999L546.06006 140.57999L542.47003 134.24998L528.12006 134.24998L525.7601 137.24998C 522.74005 142.29 518.55676 144.80666 513.2101 144.79999L513.2101 144.79999L490.74008 144.79999L488.4701 138.09999L502.0001 138.09999C 504.06326 138.14584 505.97083 137.00752 506.9101 135.17L506.9101 135.17L507.2901 134.23L491.49 134.2zM529.16 86.2L529.16 88.09C 529.1063 89.83699 528.4369 91.5088 527.26996 92.81C 525.9958 94.41396 524.04816 95.33419 521.99994 95.299995L521.99994 95.299995L494.41995 95.299995L493.47995 89.35999L510.93994 89.35999C 511.64645 89.370834 512.32764 89.09693 512.82996 88.59999C 513.20526 88.11329 513.406 87.51455 513.39996 86.899994L513.39996 86.899994L513.39996 86.23999L490.73996 86.23999L490.73996 67.82999L513.39996 67.82999L513.39996 63.999985L489.50995 63.999985L489.50995 56.499985L513.39996 56.499985L513.39996 52.249985L529.16 52.249985L529.16 56.499985L539.07996 56.499985L539.07996 52.249985L554.83997 52.249985L554.83997 56.499985L578.24994 56.499985L578.24994 65.999985C 578.18994 72.16666 575.10657 75.249985 568.99994 75.249985L568.99994 75.249985L554.83997 75.249985L554.83997 78.73998L578.24994 78.73998L578.24994 86.00998C 578.18994 92.18332 575.10657 95.26665 568.99994 95.25998L568.99994 95.25998L562.2999 95.25998L560.2199 89.31998L562.3899 89.31998C 563.03253 89.41252 563.6815 89.19967 564.14453 88.744514C 564.60754 88.28936 564.8314 87.644104 564.7499 86.99998L564.7499 86.99998L564.7499 86.239975L554.8399 86.239975L554.8399 95.29997L539.0799 95.29997L539.0799 86.239975zM513.4 75.29L504.24002 75.29L504.24002 78.78L513.4 78.78zM562.11005 108.240005L562.11005 105.50001L507.26004 105.50001L507.26004 108.240005zM562.11005 117.3L562.11005 114.19L507.26004 114.19L507.26004 117.3zM507.26004 123.3L507.26004 126.79L559.75006 126.79C 560.4006 126.88548 561.058 126.667755 561.5229 126.20283C 561.9878 125.7379 562.20557 125.08053 562.11005 124.43L562.11005 124.43L562.11005 123.3zM539.08 64L529.16003 64L529.16003 67.87L539.08 67.87zM539.08 75.33L529.16003 75.33L529.16003 78.82L539.08 78.82zM554.84 67.87L562.39 67.87C 563.0405 67.965485 563.69794 67.74776 564.16284 67.28283C 564.62775 66.8179 564.8455 66.16053 564.75 65.51L564.75 65.51L564.75 64L554.84 64z" stroke="none" fill="#1A883B" fill-rule="nonzero" />
		</g>
	</g>
</g>
</svg>